<mxfile host="app.diagrams.net" agent="Mozilla/5.0 (Windows NT 10.0; Win64; x64) AppleWebKit/537.36 (KHTML, like Gecko) Chrome/132.0.0.0 Safari/537.36 Edg/132.0.0.0" version="27.0.6">
  <diagram name="Page-1" id="ES4jxdeXt8v-ZoUTBciY">
    <mxGraphModel dx="2268" dy="1886" grid="1" gridSize="10" guides="1" tooltips="1" connect="1" arrows="1" fold="1" page="1" pageScale="1" pageWidth="850" pageHeight="1100" math="0" shadow="0">
      <root>
        <mxCell id="0" />
        <mxCell id="1" parent="0" />
        <mxCell id="AxRTOV3y-gQ7B8CPe0Pw-1" value="" style="shape=table;startSize=0;container=1;collapsible=0;childLayout=tableLayout;" vertex="1" parent="1">
          <mxGeometry x="390" y="-50" width="330" height="80" as="geometry" />
        </mxCell>
        <mxCell id="AxRTOV3y-gQ7B8CPe0Pw-2" value="" style="shape=tableRow;horizontal=0;startSize=0;swimlaneHead=0;swimlaneBody=0;strokeColor=inherit;top=0;left=0;bottom=0;right=0;collapsible=0;dropTarget=0;fillColor=none;points=[[0,0.5],[1,0.5]];portConstraint=eastwest;" vertex="1" parent="AxRTOV3y-gQ7B8CPe0Pw-1">
          <mxGeometry width="330" height="40" as="geometry" />
        </mxCell>
        <mxCell id="AxRTOV3y-gQ7B8CPe0Pw-3" value="FACULTY" style="shape=partialRectangle;html=1;whiteSpace=wrap;connectable=0;strokeColor=inherit;overflow=hidden;fillColor=none;top=0;left=0;bottom=0;right=0;pointerEvents=1;rowspan=1;colspan=5;" vertex="1" parent="AxRTOV3y-gQ7B8CPe0Pw-2">
          <mxGeometry width="330" height="40" as="geometry">
            <mxRectangle width="60" height="40" as="alternateBounds" />
          </mxGeometry>
        </mxCell>
        <mxCell id="AxRTOV3y-gQ7B8CPe0Pw-4" value="" style="shape=partialRectangle;html=1;whiteSpace=wrap;connectable=0;strokeColor=inherit;overflow=hidden;fillColor=none;top=0;left=0;bottom=0;right=0;pointerEvents=1;" vertex="1" visible="0" parent="AxRTOV3y-gQ7B8CPe0Pw-2">
          <mxGeometry x="60" width="60" height="40" as="geometry">
            <mxRectangle width="60" height="40" as="alternateBounds" />
          </mxGeometry>
        </mxCell>
        <mxCell id="AxRTOV3y-gQ7B8CPe0Pw-5" value="" style="shape=partialRectangle;html=1;whiteSpace=wrap;connectable=0;strokeColor=inherit;overflow=hidden;fillColor=none;top=0;left=0;bottom=0;right=0;pointerEvents=1;" vertex="1" visible="0" parent="AxRTOV3y-gQ7B8CPe0Pw-2">
          <mxGeometry x="120" width="61" height="40" as="geometry">
            <mxRectangle width="61" height="40" as="alternateBounds" />
          </mxGeometry>
        </mxCell>
        <mxCell id="AxRTOV3y-gQ7B8CPe0Pw-6" value="" style="shape=partialRectangle;html=1;whiteSpace=wrap;connectable=0;strokeColor=inherit;overflow=hidden;fillColor=none;top=0;left=0;bottom=0;right=0;pointerEvents=1;" vertex="1" visible="0" parent="AxRTOV3y-gQ7B8CPe0Pw-2">
          <mxGeometry x="181" width="60" height="40" as="geometry">
            <mxRectangle width="60" height="40" as="alternateBounds" />
          </mxGeometry>
        </mxCell>
        <mxCell id="AxRTOV3y-gQ7B8CPe0Pw-7" value="" style="shape=partialRectangle;html=1;whiteSpace=wrap;connectable=0;strokeColor=inherit;overflow=hidden;fillColor=none;top=0;left=0;bottom=0;right=0;pointerEvents=1;" vertex="1" visible="0" parent="AxRTOV3y-gQ7B8CPe0Pw-2">
          <mxGeometry x="241" width="89" height="40" as="geometry">
            <mxRectangle width="89" height="40" as="alternateBounds" />
          </mxGeometry>
        </mxCell>
        <mxCell id="AxRTOV3y-gQ7B8CPe0Pw-8" value="" style="shape=tableRow;horizontal=0;startSize=0;swimlaneHead=0;swimlaneBody=0;strokeColor=inherit;top=0;left=0;bottom=0;right=0;collapsible=0;dropTarget=0;fillColor=none;points=[[0,0.5],[1,0.5]];portConstraint=eastwest;" vertex="1" parent="AxRTOV3y-gQ7B8CPe0Pw-1">
          <mxGeometry y="40" width="330" height="40" as="geometry" />
        </mxCell>
        <mxCell id="AxRTOV3y-gQ7B8CPe0Pw-9" value="&lt;span style=&quot;text-decoration-line: underline;&quot;&gt;&amp;nbsp;F_id&lt;/span&gt;" style="shape=partialRectangle;html=1;whiteSpace=wrap;connectable=0;strokeColor=inherit;overflow=hidden;fillColor=none;top=0;left=0;bottom=0;right=0;pointerEvents=1;" vertex="1" parent="AxRTOV3y-gQ7B8CPe0Pw-8">
          <mxGeometry width="60" height="40" as="geometry">
            <mxRectangle width="60" height="40" as="alternateBounds" />
          </mxGeometry>
        </mxCell>
        <mxCell id="AxRTOV3y-gQ7B8CPe0Pw-10" value="Mobile_no" style="shape=partialRectangle;html=1;whiteSpace=wrap;connectable=0;strokeColor=inherit;overflow=hidden;fillColor=none;top=0;left=0;bottom=0;right=0;pointerEvents=1;" vertex="1" parent="AxRTOV3y-gQ7B8CPe0Pw-8">
          <mxGeometry x="60" width="60" height="40" as="geometry">
            <mxRectangle width="60" height="40" as="alternateBounds" />
          </mxGeometry>
        </mxCell>
        <mxCell id="AxRTOV3y-gQ7B8CPe0Pw-11" value="&amp;nbsp;Name" style="shape=partialRectangle;html=1;whiteSpace=wrap;connectable=0;strokeColor=inherit;overflow=hidden;fillColor=none;top=0;left=0;bottom=0;right=0;pointerEvents=1;" vertex="1" parent="AxRTOV3y-gQ7B8CPe0Pw-8">
          <mxGeometry x="120" width="61" height="40" as="geometry">
            <mxRectangle width="61" height="40" as="alternateBounds" />
          </mxGeometry>
        </mxCell>
        <mxCell id="AxRTOV3y-gQ7B8CPe0Pw-12" value="Salary" style="shape=partialRectangle;html=1;whiteSpace=wrap;connectable=0;strokeColor=inherit;overflow=hidden;fillColor=none;top=0;left=0;bottom=0;right=0;pointerEvents=1;" vertex="1" parent="AxRTOV3y-gQ7B8CPe0Pw-8">
          <mxGeometry x="181" width="60" height="40" as="geometry">
            <mxRectangle width="60" height="40" as="alternateBounds" />
          </mxGeometry>
        </mxCell>
        <mxCell id="AxRTOV3y-gQ7B8CPe0Pw-13" value="Department_id" style="shape=partialRectangle;html=1;whiteSpace=wrap;connectable=0;strokeColor=inherit;overflow=hidden;fillColor=none;top=0;left=0;bottom=0;right=0;pointerEvents=1;" vertex="1" parent="AxRTOV3y-gQ7B8CPe0Pw-8">
          <mxGeometry x="241" width="89" height="40" as="geometry">
            <mxRectangle width="89" height="40" as="alternateBounds" />
          </mxGeometry>
        </mxCell>
        <mxCell id="AxRTOV3y-gQ7B8CPe0Pw-14" value="" style="shape=table;startSize=0;container=1;collapsible=0;childLayout=tableLayout;" vertex="1" parent="1">
          <mxGeometry x="-120" y="120" width="580" height="80" as="geometry" />
        </mxCell>
        <mxCell id="AxRTOV3y-gQ7B8CPe0Pw-15" value="" style="shape=tableRow;horizontal=0;startSize=0;swimlaneHead=0;swimlaneBody=0;strokeColor=inherit;top=0;left=0;bottom=0;right=0;collapsible=0;dropTarget=0;fillColor=none;points=[[0,0.5],[1,0.5]];portConstraint=eastwest;" vertex="1" parent="AxRTOV3y-gQ7B8CPe0Pw-14">
          <mxGeometry width="580" height="40" as="geometry" />
        </mxCell>
        <mxCell id="AxRTOV3y-gQ7B8CPe0Pw-16" value="STUDENT" style="shape=partialRectangle;html=1;whiteSpace=wrap;connectable=0;strokeColor=inherit;overflow=hidden;fillColor=none;top=0;left=0;bottom=0;right=0;pointerEvents=1;rowspan=1;colspan=8;" vertex="1" parent="AxRTOV3y-gQ7B8CPe0Pw-15">
          <mxGeometry width="580" height="40" as="geometry">
            <mxRectangle width="61" height="40" as="alternateBounds" />
          </mxGeometry>
        </mxCell>
        <mxCell id="AxRTOV3y-gQ7B8CPe0Pw-17" value="" style="shape=partialRectangle;html=1;whiteSpace=wrap;connectable=0;strokeColor=inherit;overflow=hidden;fillColor=none;top=0;left=0;bottom=0;right=0;pointerEvents=1;" vertex="1" visible="0" parent="AxRTOV3y-gQ7B8CPe0Pw-15">
          <mxGeometry x="61" width="59" height="40" as="geometry">
            <mxRectangle width="59" height="40" as="alternateBounds" />
          </mxGeometry>
        </mxCell>
        <mxCell id="AxRTOV3y-gQ7B8CPe0Pw-18" value="" style="shape=partialRectangle;html=1;whiteSpace=wrap;connectable=0;strokeColor=inherit;overflow=hidden;fillColor=none;top=0;left=0;bottom=0;right=0;pointerEvents=1;" vertex="1" visible="0" parent="AxRTOV3y-gQ7B8CPe0Pw-15">
          <mxGeometry x="120" width="61" height="40" as="geometry">
            <mxRectangle width="61" height="40" as="alternateBounds" />
          </mxGeometry>
        </mxCell>
        <mxCell id="AxRTOV3y-gQ7B8CPe0Pw-19" value="" style="shape=partialRectangle;html=1;whiteSpace=wrap;connectable=0;strokeColor=inherit;overflow=hidden;fillColor=none;top=0;left=0;bottom=0;right=0;pointerEvents=1;" vertex="1" visible="0" parent="AxRTOV3y-gQ7B8CPe0Pw-15">
          <mxGeometry x="181" width="59" height="40" as="geometry">
            <mxRectangle width="59" height="40" as="alternateBounds" />
          </mxGeometry>
        </mxCell>
        <mxCell id="AxRTOV3y-gQ7B8CPe0Pw-20" value="" style="shape=partialRectangle;html=1;whiteSpace=wrap;connectable=0;strokeColor=inherit;overflow=hidden;fillColor=none;top=0;left=0;bottom=0;right=0;pointerEvents=1;" vertex="1" visible="0" parent="AxRTOV3y-gQ7B8CPe0Pw-15">
          <mxGeometry x="240" width="70" height="40" as="geometry">
            <mxRectangle width="70" height="40" as="alternateBounds" />
          </mxGeometry>
        </mxCell>
        <mxCell id="AxRTOV3y-gQ7B8CPe0Pw-86" style="shape=partialRectangle;html=1;whiteSpace=wrap;connectable=0;strokeColor=inherit;overflow=hidden;fillColor=none;top=0;left=0;bottom=0;right=0;pointerEvents=1;" vertex="1" visible="0" parent="AxRTOV3y-gQ7B8CPe0Pw-15">
          <mxGeometry x="310" width="90" height="40" as="geometry">
            <mxRectangle width="90" height="40" as="alternateBounds" />
          </mxGeometry>
        </mxCell>
        <mxCell id="AxRTOV3y-gQ7B8CPe0Pw-88" style="shape=partialRectangle;html=1;whiteSpace=wrap;connectable=0;strokeColor=inherit;overflow=hidden;fillColor=none;top=0;left=0;bottom=0;right=0;pointerEvents=1;" vertex="1" visible="0" parent="AxRTOV3y-gQ7B8CPe0Pw-15">
          <mxGeometry x="400" width="90" height="40" as="geometry">
            <mxRectangle width="90" height="40" as="alternateBounds" />
          </mxGeometry>
        </mxCell>
        <mxCell id="AxRTOV3y-gQ7B8CPe0Pw-90" style="shape=partialRectangle;html=1;whiteSpace=wrap;connectable=0;strokeColor=inherit;overflow=hidden;fillColor=none;top=0;left=0;bottom=0;right=0;pointerEvents=1;" vertex="1" visible="0" parent="AxRTOV3y-gQ7B8CPe0Pw-15">
          <mxGeometry x="490" width="90" height="40" as="geometry">
            <mxRectangle width="90" height="40" as="alternateBounds" />
          </mxGeometry>
        </mxCell>
        <mxCell id="AxRTOV3y-gQ7B8CPe0Pw-21" value="" style="shape=tableRow;horizontal=0;startSize=0;swimlaneHead=0;swimlaneBody=0;strokeColor=inherit;top=0;left=0;bottom=0;right=0;collapsible=0;dropTarget=0;fillColor=none;points=[[0,0.5],[1,0.5]];portConstraint=eastwest;" vertex="1" parent="AxRTOV3y-gQ7B8CPe0Pw-14">
          <mxGeometry y="40" width="580" height="40" as="geometry" />
        </mxCell>
        <mxCell id="AxRTOV3y-gQ7B8CPe0Pw-22" value="&lt;span style=&quot;text-decoration-line: underline;&quot;&gt;S_id&lt;/span&gt;" style="shape=partialRectangle;html=1;whiteSpace=wrap;connectable=0;strokeColor=inherit;overflow=hidden;fillColor=none;top=0;left=0;bottom=0;right=0;pointerEvents=1;" vertex="1" parent="AxRTOV3y-gQ7B8CPe0Pw-21">
          <mxGeometry width="61" height="40" as="geometry">
            <mxRectangle width="61" height="40" as="alternateBounds" />
          </mxGeometry>
        </mxCell>
        <mxCell id="AxRTOV3y-gQ7B8CPe0Pw-23" value="&amp;nbsp;F_name" style="shape=partialRectangle;html=1;whiteSpace=wrap;connectable=0;strokeColor=inherit;overflow=hidden;fillColor=none;top=0;left=0;bottom=0;right=0;pointerEvents=1;" vertex="1" parent="AxRTOV3y-gQ7B8CPe0Pw-21">
          <mxGeometry x="61" width="59" height="40" as="geometry">
            <mxRectangle width="59" height="40" as="alternateBounds" />
          </mxGeometry>
        </mxCell>
        <mxCell id="AxRTOV3y-gQ7B8CPe0Pw-24" value="&amp;nbsp;L_name" style="shape=partialRectangle;html=1;whiteSpace=wrap;connectable=0;strokeColor=inherit;overflow=hidden;fillColor=none;top=0;left=0;bottom=0;right=0;pointerEvents=1;" vertex="1" parent="AxRTOV3y-gQ7B8CPe0Pw-21">
          <mxGeometry x="120" width="61" height="40" as="geometry">
            <mxRectangle width="61" height="40" as="alternateBounds" />
          </mxGeometry>
        </mxCell>
        <mxCell id="AxRTOV3y-gQ7B8CPe0Pw-25" value="Phone_no" style="shape=partialRectangle;html=1;whiteSpace=wrap;connectable=0;strokeColor=inherit;overflow=hidden;fillColor=none;top=0;left=0;bottom=0;right=0;pointerEvents=1;" vertex="1" parent="AxRTOV3y-gQ7B8CPe0Pw-21">
          <mxGeometry x="181" width="59" height="40" as="geometry">
            <mxRectangle width="59" height="40" as="alternateBounds" />
          </mxGeometry>
        </mxCell>
        <mxCell id="AxRTOV3y-gQ7B8CPe0Pw-26" value="DOB" style="shape=partialRectangle;html=1;whiteSpace=wrap;connectable=0;strokeColor=inherit;overflow=hidden;fillColor=none;top=0;left=0;bottom=0;right=0;pointerEvents=1;" vertex="1" parent="AxRTOV3y-gQ7B8CPe0Pw-21">
          <mxGeometry x="240" width="70" height="40" as="geometry">
            <mxRectangle width="70" height="40" as="alternateBounds" />
          </mxGeometry>
        </mxCell>
        <mxCell id="AxRTOV3y-gQ7B8CPe0Pw-87" value="Hostel_id" style="shape=partialRectangle;html=1;whiteSpace=wrap;connectable=0;strokeColor=inherit;overflow=hidden;fillColor=none;top=0;left=0;bottom=0;right=0;pointerEvents=1;" vertex="1" parent="AxRTOV3y-gQ7B8CPe0Pw-21">
          <mxGeometry x="310" width="90" height="40" as="geometry">
            <mxRectangle width="90" height="40" as="alternateBounds" />
          </mxGeometry>
        </mxCell>
        <mxCell id="AxRTOV3y-gQ7B8CPe0Pw-89" value="Department_id" style="shape=partialRectangle;html=1;whiteSpace=wrap;connectable=0;strokeColor=inherit;overflow=hidden;fillColor=none;top=0;left=0;bottom=0;right=0;pointerEvents=1;" vertex="1" parent="AxRTOV3y-gQ7B8CPe0Pw-21">
          <mxGeometry x="400" width="90" height="40" as="geometry">
            <mxRectangle width="90" height="40" as="alternateBounds" />
          </mxGeometry>
        </mxCell>
        <mxCell id="AxRTOV3y-gQ7B8CPe0Pw-91" value="&amp;nbsp;F_id" style="shape=partialRectangle;html=1;whiteSpace=wrap;connectable=0;strokeColor=inherit;overflow=hidden;fillColor=none;top=0;left=0;bottom=0;right=0;pointerEvents=1;" vertex="1" parent="AxRTOV3y-gQ7B8CPe0Pw-21">
          <mxGeometry x="490" width="90" height="40" as="geometry">
            <mxRectangle width="90" height="40" as="alternateBounds" />
          </mxGeometry>
        </mxCell>
        <mxCell id="AxRTOV3y-gQ7B8CPe0Pw-27" value="" style="shape=table;startSize=0;container=1;collapsible=0;childLayout=tableLayout;" vertex="1" parent="1">
          <mxGeometry x="-240" y="350" width="458" height="80" as="geometry" />
        </mxCell>
        <mxCell id="AxRTOV3y-gQ7B8CPe0Pw-28" value="" style="shape=tableRow;horizontal=0;startSize=0;swimlaneHead=0;swimlaneBody=0;strokeColor=inherit;top=0;left=0;bottom=0;right=0;collapsible=0;dropTarget=0;fillColor=none;points=[[0,0.5],[1,0.5]];portConstraint=eastwest;" vertex="1" parent="AxRTOV3y-gQ7B8CPe0Pw-27">
          <mxGeometry width="458" height="40" as="geometry" />
        </mxCell>
        <mxCell id="AxRTOV3y-gQ7B8CPe0Pw-29" value="HOSTEL" style="shape=partialRectangle;html=1;whiteSpace=wrap;connectable=0;strokeColor=inherit;overflow=hidden;fillColor=none;top=0;left=0;bottom=0;right=0;pointerEvents=1;rowspan=1;colspan=7;" vertex="1" parent="AxRTOV3y-gQ7B8CPe0Pw-28">
          <mxGeometry width="458" height="40" as="geometry">
            <mxRectangle width="60" height="40" as="alternateBounds" />
          </mxGeometry>
        </mxCell>
        <mxCell id="AxRTOV3y-gQ7B8CPe0Pw-30" value="" style="shape=partialRectangle;html=1;whiteSpace=wrap;connectable=0;strokeColor=inherit;overflow=hidden;fillColor=none;top=0;left=0;bottom=0;right=0;pointerEvents=1;" vertex="1" visible="0" parent="AxRTOV3y-gQ7B8CPe0Pw-28">
          <mxGeometry x="60" width="80" height="40" as="geometry">
            <mxRectangle width="80" height="40" as="alternateBounds" />
          </mxGeometry>
        </mxCell>
        <mxCell id="AxRTOV3y-gQ7B8CPe0Pw-31" value="" style="shape=partialRectangle;html=1;whiteSpace=wrap;connectable=0;strokeColor=inherit;overflow=hidden;fillColor=none;top=0;left=0;bottom=0;right=0;pointerEvents=1;" vertex="1" visible="0" parent="AxRTOV3y-gQ7B8CPe0Pw-28">
          <mxGeometry x="140" width="50" height="40" as="geometry">
            <mxRectangle width="50" height="40" as="alternateBounds" />
          </mxGeometry>
        </mxCell>
        <mxCell id="AxRTOV3y-gQ7B8CPe0Pw-32" value="" style="shape=partialRectangle;html=1;whiteSpace=wrap;connectable=0;strokeColor=inherit;overflow=hidden;fillColor=none;top=0;left=0;bottom=0;right=0;pointerEvents=1;" vertex="1" visible="0" parent="AxRTOV3y-gQ7B8CPe0Pw-28">
          <mxGeometry x="190" width="50" height="40" as="geometry">
            <mxRectangle width="50" height="40" as="alternateBounds" />
          </mxGeometry>
        </mxCell>
        <mxCell id="AxRTOV3y-gQ7B8CPe0Pw-33" value="" style="shape=partialRectangle;html=1;whiteSpace=wrap;connectable=0;strokeColor=inherit;overflow=hidden;fillColor=none;top=0;left=0;bottom=0;right=0;pointerEvents=1;" vertex="1" visible="0" parent="AxRTOV3y-gQ7B8CPe0Pw-28">
          <mxGeometry x="240" width="80" height="40" as="geometry">
            <mxRectangle width="80" height="40" as="alternateBounds" />
          </mxGeometry>
        </mxCell>
        <mxCell id="AxRTOV3y-gQ7B8CPe0Pw-34" value="" style="shape=partialRectangle;html=1;whiteSpace=wrap;connectable=0;strokeColor=inherit;overflow=hidden;fillColor=none;top=0;left=0;bottom=0;right=0;pointerEvents=1;" vertex="1" visible="0" parent="AxRTOV3y-gQ7B8CPe0Pw-28">
          <mxGeometry x="320" width="60" height="40" as="geometry">
            <mxRectangle width="60" height="40" as="alternateBounds" />
          </mxGeometry>
        </mxCell>
        <mxCell id="AxRTOV3y-gQ7B8CPe0Pw-35" value="" style="shape=partialRectangle;html=1;whiteSpace=wrap;connectable=0;strokeColor=inherit;overflow=hidden;fillColor=none;top=0;left=0;bottom=0;right=0;pointerEvents=1;" vertex="1" visible="0" parent="AxRTOV3y-gQ7B8CPe0Pw-28">
          <mxGeometry x="380" width="78" height="40" as="geometry">
            <mxRectangle width="78" height="40" as="alternateBounds" />
          </mxGeometry>
        </mxCell>
        <mxCell id="AxRTOV3y-gQ7B8CPe0Pw-36" value="" style="shape=tableRow;horizontal=0;startSize=0;swimlaneHead=0;swimlaneBody=0;strokeColor=inherit;top=0;left=0;bottom=0;right=0;collapsible=0;dropTarget=0;fillColor=none;points=[[0,0.5],[1,0.5]];portConstraint=eastwest;" vertex="1" parent="AxRTOV3y-gQ7B8CPe0Pw-27">
          <mxGeometry y="40" width="458" height="40" as="geometry" />
        </mxCell>
        <mxCell id="AxRTOV3y-gQ7B8CPe0Pw-37" value="&lt;span style=&quot;text-decoration-line: underline;&quot;&gt;Hostel_id&lt;/span&gt;" style="shape=partialRectangle;html=1;whiteSpace=wrap;connectable=0;strokeColor=inherit;overflow=hidden;fillColor=none;top=0;left=0;bottom=0;right=0;pointerEvents=1;" vertex="1" parent="AxRTOV3y-gQ7B8CPe0Pw-36">
          <mxGeometry width="60" height="40" as="geometry">
            <mxRectangle width="60" height="40" as="alternateBounds" />
          </mxGeometry>
        </mxCell>
        <mxCell id="AxRTOV3y-gQ7B8CPe0Pw-38" value="Hostel_name" style="shape=partialRectangle;html=1;whiteSpace=wrap;connectable=0;strokeColor=inherit;overflow=hidden;fillColor=none;top=0;left=0;bottom=0;right=0;pointerEvents=1;" vertex="1" parent="AxRTOV3y-gQ7B8CPe0Pw-36">
          <mxGeometry x="60" width="80" height="40" as="geometry">
            <mxRectangle width="80" height="40" as="alternateBounds" />
          </mxGeometry>
        </mxCell>
        <mxCell id="AxRTOV3y-gQ7B8CPe0Pw-39" value="City" style="shape=partialRectangle;html=1;whiteSpace=wrap;connectable=0;strokeColor=inherit;overflow=hidden;fillColor=none;top=0;left=0;bottom=0;right=0;pointerEvents=1;" vertex="1" parent="AxRTOV3y-gQ7B8CPe0Pw-36">
          <mxGeometry x="140" width="50" height="40" as="geometry">
            <mxRectangle width="50" height="40" as="alternateBounds" />
          </mxGeometry>
        </mxCell>
        <mxCell id="AxRTOV3y-gQ7B8CPe0Pw-40" value="State" style="shape=partialRectangle;html=1;whiteSpace=wrap;connectable=0;strokeColor=inherit;overflow=hidden;fillColor=none;top=0;left=0;bottom=0;right=0;pointerEvents=1;" vertex="1" parent="AxRTOV3y-gQ7B8CPe0Pw-36">
          <mxGeometry x="190" width="50" height="40" as="geometry">
            <mxRectangle width="50" height="40" as="alternateBounds" />
          </mxGeometry>
        </mxCell>
        <mxCell id="AxRTOV3y-gQ7B8CPe0Pw-41" value="&amp;nbsp;No_of_seats" style="shape=partialRectangle;html=1;whiteSpace=wrap;connectable=0;strokeColor=inherit;overflow=hidden;fillColor=none;top=0;left=0;bottom=0;right=0;pointerEvents=1;" vertex="1" parent="AxRTOV3y-gQ7B8CPe0Pw-36">
          <mxGeometry x="240" width="80" height="40" as="geometry">
            <mxRectangle width="80" height="40" as="alternateBounds" />
          </mxGeometry>
        </mxCell>
        <mxCell id="AxRTOV3y-gQ7B8CPe0Pw-42" value="Pin_code" style="shape=partialRectangle;html=1;whiteSpace=wrap;connectable=0;strokeColor=inherit;overflow=hidden;fillColor=none;top=0;left=0;bottom=0;right=0;pointerEvents=1;" vertex="1" parent="AxRTOV3y-gQ7B8CPe0Pw-36">
          <mxGeometry x="320" width="60" height="40" as="geometry">
            <mxRectangle width="60" height="40" as="alternateBounds" />
          </mxGeometry>
        </mxCell>
        <mxCell id="AxRTOV3y-gQ7B8CPe0Pw-43" value="&amp;nbsp;Address" style="shape=partialRectangle;html=1;whiteSpace=wrap;connectable=0;strokeColor=inherit;overflow=hidden;fillColor=none;top=0;left=0;bottom=0;right=0;pointerEvents=1;" vertex="1" parent="AxRTOV3y-gQ7B8CPe0Pw-36">
          <mxGeometry x="380" width="78" height="40" as="geometry">
            <mxRectangle width="78" height="40" as="alternateBounds" />
          </mxGeometry>
        </mxCell>
        <mxCell id="AxRTOV3y-gQ7B8CPe0Pw-44" value="" style="shape=table;startSize=0;container=1;collapsible=0;childLayout=tableLayout;" vertex="1" parent="1">
          <mxGeometry x="530" y="350" width="200" height="80" as="geometry" />
        </mxCell>
        <mxCell id="AxRTOV3y-gQ7B8CPe0Pw-45" value="" style="shape=tableRow;horizontal=0;startSize=0;swimlaneHead=0;swimlaneBody=0;strokeColor=inherit;top=0;left=0;bottom=0;right=0;collapsible=0;dropTarget=0;fillColor=none;points=[[0,0.5],[1,0.5]];portConstraint=eastwest;" vertex="1" parent="AxRTOV3y-gQ7B8CPe0Pw-44">
          <mxGeometry width="200" height="40" as="geometry" />
        </mxCell>
        <mxCell id="AxRTOV3y-gQ7B8CPe0Pw-46" value="COURSE&amp;nbsp;" style="shape=partialRectangle;html=1;whiteSpace=wrap;connectable=0;strokeColor=inherit;overflow=hidden;fillColor=none;top=0;left=0;bottom=0;right=0;pointerEvents=1;rowspan=1;colspan=3;" vertex="1" parent="AxRTOV3y-gQ7B8CPe0Pw-45">
          <mxGeometry width="200" height="40" as="geometry">
            <mxRectangle width="60" height="40" as="alternateBounds" />
          </mxGeometry>
        </mxCell>
        <mxCell id="AxRTOV3y-gQ7B8CPe0Pw-47" value="" style="shape=partialRectangle;html=1;whiteSpace=wrap;connectable=0;strokeColor=inherit;overflow=hidden;fillColor=none;top=0;left=0;bottom=0;right=0;pointerEvents=1;" vertex="1" visible="0" parent="AxRTOV3y-gQ7B8CPe0Pw-45">
          <mxGeometry x="60" width="81" height="40" as="geometry">
            <mxRectangle width="81" height="40" as="alternateBounds" />
          </mxGeometry>
        </mxCell>
        <mxCell id="AxRTOV3y-gQ7B8CPe0Pw-48" value="" style="shape=partialRectangle;html=1;whiteSpace=wrap;connectable=0;strokeColor=inherit;overflow=hidden;fillColor=none;top=0;left=0;bottom=0;right=0;pointerEvents=1;" vertex="1" visible="0" parent="AxRTOV3y-gQ7B8CPe0Pw-45">
          <mxGeometry x="141" width="59" height="40" as="geometry">
            <mxRectangle width="59" height="40" as="alternateBounds" />
          </mxGeometry>
        </mxCell>
        <mxCell id="AxRTOV3y-gQ7B8CPe0Pw-49" value="" style="shape=tableRow;horizontal=0;startSize=0;swimlaneHead=0;swimlaneBody=0;strokeColor=inherit;top=0;left=0;bottom=0;right=0;collapsible=0;dropTarget=0;fillColor=none;points=[[0,0.5],[1,0.5]];portConstraint=eastwest;" vertex="1" parent="AxRTOV3y-gQ7B8CPe0Pw-44">
          <mxGeometry y="40" width="200" height="40" as="geometry" />
        </mxCell>
        <mxCell id="AxRTOV3y-gQ7B8CPe0Pw-50" value="&lt;span style=&quot;text-decoration-line: underline;&quot;&gt;Course_id&lt;/span&gt;" style="shape=partialRectangle;html=1;whiteSpace=wrap;connectable=0;strokeColor=inherit;overflow=hidden;fillColor=none;top=0;left=0;bottom=0;right=0;pointerEvents=1;" vertex="1" parent="AxRTOV3y-gQ7B8CPe0Pw-49">
          <mxGeometry width="60" height="40" as="geometry">
            <mxRectangle width="60" height="40" as="alternateBounds" />
          </mxGeometry>
        </mxCell>
        <mxCell id="AxRTOV3y-gQ7B8CPe0Pw-51" value="Course-name" style="shape=partialRectangle;html=1;whiteSpace=wrap;connectable=0;strokeColor=inherit;overflow=hidden;fillColor=none;top=0;left=0;bottom=0;right=0;pointerEvents=1;" vertex="1" parent="AxRTOV3y-gQ7B8CPe0Pw-49">
          <mxGeometry x="60" width="81" height="40" as="geometry">
            <mxRectangle width="81" height="40" as="alternateBounds" />
          </mxGeometry>
        </mxCell>
        <mxCell id="AxRTOV3y-gQ7B8CPe0Pw-52" value="&amp;nbsp;Duration" style="shape=partialRectangle;html=1;whiteSpace=wrap;connectable=0;strokeColor=inherit;overflow=hidden;fillColor=none;top=0;left=0;bottom=0;right=0;pointerEvents=1;" vertex="1" parent="AxRTOV3y-gQ7B8CPe0Pw-49">
          <mxGeometry x="141" width="59" height="40" as="geometry">
            <mxRectangle width="59" height="40" as="alternateBounds" />
          </mxGeometry>
        </mxCell>
        <mxCell id="AxRTOV3y-gQ7B8CPe0Pw-57" value="" style="shape=table;startSize=0;container=1;collapsible=0;childLayout=tableLayout;" vertex="1" parent="1">
          <mxGeometry x="330" y="300" width="150" height="80" as="geometry" />
        </mxCell>
        <mxCell id="AxRTOV3y-gQ7B8CPe0Pw-58" value="" style="shape=tableRow;horizontal=0;startSize=0;swimlaneHead=0;swimlaneBody=0;strokeColor=inherit;top=0;left=0;bottom=0;right=0;collapsible=0;dropTarget=0;fillColor=none;points=[[0,0.5],[1,0.5]];portConstraint=eastwest;" vertex="1" parent="AxRTOV3y-gQ7B8CPe0Pw-57">
          <mxGeometry width="150" height="40" as="geometry" />
        </mxCell>
        <mxCell id="AxRTOV3y-gQ7B8CPe0Pw-59" value="DEPARTMENT" style="shape=partialRectangle;html=1;whiteSpace=wrap;connectable=0;strokeColor=inherit;overflow=hidden;fillColor=none;top=0;left=0;bottom=0;right=0;pointerEvents=1;rowspan=1;colspan=2;" vertex="1" parent="AxRTOV3y-gQ7B8CPe0Pw-58">
          <mxGeometry width="150" height="40" as="geometry">
            <mxRectangle width="89" height="40" as="alternateBounds" />
          </mxGeometry>
        </mxCell>
        <mxCell id="AxRTOV3y-gQ7B8CPe0Pw-60" value="" style="shape=partialRectangle;html=1;whiteSpace=wrap;connectable=0;strokeColor=inherit;overflow=hidden;fillColor=none;top=0;left=0;bottom=0;right=0;pointerEvents=1;" vertex="1" visible="0" parent="AxRTOV3y-gQ7B8CPe0Pw-58">
          <mxGeometry x="89" width="61" height="40" as="geometry">
            <mxRectangle width="61" height="40" as="alternateBounds" />
          </mxGeometry>
        </mxCell>
        <mxCell id="AxRTOV3y-gQ7B8CPe0Pw-61" value="" style="shape=tableRow;horizontal=0;startSize=0;swimlaneHead=0;swimlaneBody=0;strokeColor=inherit;top=0;left=0;bottom=0;right=0;collapsible=0;dropTarget=0;fillColor=none;points=[[0,0.5],[1,0.5]];portConstraint=eastwest;" vertex="1" parent="AxRTOV3y-gQ7B8CPe0Pw-57">
          <mxGeometry y="40" width="150" height="40" as="geometry" />
        </mxCell>
        <mxCell id="AxRTOV3y-gQ7B8CPe0Pw-62" value="Department_id" style="shape=partialRectangle;html=1;whiteSpace=wrap;connectable=0;strokeColor=inherit;overflow=hidden;fillColor=none;top=0;left=0;bottom=0;right=0;pointerEvents=1;" vertex="1" parent="AxRTOV3y-gQ7B8CPe0Pw-61">
          <mxGeometry width="89" height="40" as="geometry">
            <mxRectangle width="89" height="40" as="alternateBounds" />
          </mxGeometry>
        </mxCell>
        <mxCell id="AxRTOV3y-gQ7B8CPe0Pw-63" value="&amp;nbsp;D_name" style="shape=partialRectangle;html=1;whiteSpace=wrap;connectable=0;strokeColor=inherit;overflow=hidden;fillColor=none;top=0;left=0;bottom=0;right=0;pointerEvents=1;" vertex="1" parent="AxRTOV3y-gQ7B8CPe0Pw-61">
          <mxGeometry x="89" width="61" height="40" as="geometry">
            <mxRectangle width="61" height="40" as="alternateBounds" />
          </mxGeometry>
        </mxCell>
        <mxCell id="AxRTOV3y-gQ7B8CPe0Pw-64" value="" style="shape=table;startSize=0;container=1;collapsible=0;childLayout=tableLayout;" vertex="1" parent="1">
          <mxGeometry x="30" y="-200" width="330" height="80" as="geometry" />
        </mxCell>
        <mxCell id="AxRTOV3y-gQ7B8CPe0Pw-65" value="" style="shape=tableRow;horizontal=0;startSize=0;swimlaneHead=0;swimlaneBody=0;strokeColor=inherit;top=0;left=0;bottom=0;right=0;collapsible=0;dropTarget=0;fillColor=none;points=[[0,0.5],[1,0.5]];portConstraint=eastwest;" vertex="1" parent="AxRTOV3y-gQ7B8CPe0Pw-64">
          <mxGeometry width="330" height="40" as="geometry" />
        </mxCell>
        <mxCell id="AxRTOV3y-gQ7B8CPe0Pw-66" value="&amp;nbsp;EXAMS&amp;nbsp;" style="shape=partialRectangle;html=1;whiteSpace=wrap;connectable=0;strokeColor=inherit;overflow=hidden;fillColor=none;top=0;left=0;bottom=0;right=0;pointerEvents=1;rowspan=1;colspan=5;" vertex="1" parent="AxRTOV3y-gQ7B8CPe0Pw-65">
          <mxGeometry width="330" height="40" as="geometry">
            <mxRectangle width="70" height="40" as="alternateBounds" />
          </mxGeometry>
        </mxCell>
        <mxCell id="AxRTOV3y-gQ7B8CPe0Pw-67" value="" style="shape=partialRectangle;html=1;whiteSpace=wrap;connectable=0;strokeColor=inherit;overflow=hidden;fillColor=none;top=0;left=0;bottom=0;right=0;pointerEvents=1;" vertex="1" visible="0" parent="AxRTOV3y-gQ7B8CPe0Pw-65">
          <mxGeometry x="70" width="50" height="40" as="geometry">
            <mxRectangle width="50" height="40" as="alternateBounds" />
          </mxGeometry>
        </mxCell>
        <mxCell id="AxRTOV3y-gQ7B8CPe0Pw-68" value="" style="shape=partialRectangle;html=1;whiteSpace=wrap;connectable=0;strokeColor=inherit;overflow=hidden;fillColor=none;top=0;left=0;bottom=0;right=0;pointerEvents=1;" vertex="1" visible="0" parent="AxRTOV3y-gQ7B8CPe0Pw-65">
          <mxGeometry x="120" width="61" height="40" as="geometry">
            <mxRectangle width="61" height="40" as="alternateBounds" />
          </mxGeometry>
        </mxCell>
        <mxCell id="AxRTOV3y-gQ7B8CPe0Pw-69" value="" style="shape=partialRectangle;html=1;whiteSpace=wrap;connectable=0;strokeColor=inherit;overflow=hidden;fillColor=none;top=0;left=0;bottom=0;right=0;pointerEvents=1;" vertex="1" visible="0" parent="AxRTOV3y-gQ7B8CPe0Pw-65">
          <mxGeometry x="181" width="68" height="40" as="geometry">
            <mxRectangle width="68" height="40" as="alternateBounds" />
          </mxGeometry>
        </mxCell>
        <mxCell id="AxRTOV3y-gQ7B8CPe0Pw-92" style="shape=partialRectangle;html=1;whiteSpace=wrap;connectable=0;strokeColor=inherit;overflow=hidden;fillColor=none;top=0;left=0;bottom=0;right=0;pointerEvents=1;" vertex="1" visible="0" parent="AxRTOV3y-gQ7B8CPe0Pw-65">
          <mxGeometry x="249" width="81" height="40" as="geometry">
            <mxRectangle width="81" height="40" as="alternateBounds" />
          </mxGeometry>
        </mxCell>
        <mxCell id="AxRTOV3y-gQ7B8CPe0Pw-70" value="" style="shape=tableRow;horizontal=0;startSize=0;swimlaneHead=0;swimlaneBody=0;strokeColor=inherit;top=0;left=0;bottom=0;right=0;collapsible=0;dropTarget=0;fillColor=none;points=[[0,0.5],[1,0.5]];portConstraint=eastwest;" vertex="1" parent="AxRTOV3y-gQ7B8CPe0Pw-64">
          <mxGeometry y="40" width="330" height="40" as="geometry" />
        </mxCell>
        <mxCell id="AxRTOV3y-gQ7B8CPe0Pw-71" value="&lt;span style=&quot;text-decoration-line: underline;&quot;&gt;Exam_code&lt;/span&gt;" style="shape=partialRectangle;html=1;whiteSpace=wrap;connectable=0;strokeColor=inherit;overflow=hidden;fillColor=none;top=0;left=0;bottom=0;right=0;pointerEvents=1;" vertex="1" parent="AxRTOV3y-gQ7B8CPe0Pw-70">
          <mxGeometry width="70" height="40" as="geometry">
            <mxRectangle width="70" height="40" as="alternateBounds" />
          </mxGeometry>
        </mxCell>
        <mxCell id="AxRTOV3y-gQ7B8CPe0Pw-72" value="Date" style="shape=partialRectangle;html=1;whiteSpace=wrap;connectable=0;strokeColor=inherit;overflow=hidden;fillColor=none;top=0;left=0;bottom=0;right=0;pointerEvents=1;" vertex="1" parent="AxRTOV3y-gQ7B8CPe0Pw-70">
          <mxGeometry x="70" width="50" height="40" as="geometry">
            <mxRectangle width="50" height="40" as="alternateBounds" />
          </mxGeometry>
        </mxCell>
        <mxCell id="AxRTOV3y-gQ7B8CPe0Pw-73" value="Time" style="shape=partialRectangle;html=1;whiteSpace=wrap;connectable=0;strokeColor=inherit;overflow=hidden;fillColor=none;top=0;left=0;bottom=0;right=0;pointerEvents=1;" vertex="1" parent="AxRTOV3y-gQ7B8CPe0Pw-70">
          <mxGeometry x="120" width="61" height="40" as="geometry">
            <mxRectangle width="61" height="40" as="alternateBounds" />
          </mxGeometry>
        </mxCell>
        <mxCell id="AxRTOV3y-gQ7B8CPe0Pw-74" value="Room" style="shape=partialRectangle;html=1;whiteSpace=wrap;connectable=0;strokeColor=inherit;overflow=hidden;fillColor=none;top=0;left=0;bottom=0;right=0;pointerEvents=1;" vertex="1" parent="AxRTOV3y-gQ7B8CPe0Pw-70">
          <mxGeometry x="181" width="68" height="40" as="geometry">
            <mxRectangle width="68" height="40" as="alternateBounds" />
          </mxGeometry>
        </mxCell>
        <mxCell id="AxRTOV3y-gQ7B8CPe0Pw-93" value="Department_id" style="shape=partialRectangle;html=1;whiteSpace=wrap;connectable=0;strokeColor=inherit;overflow=hidden;fillColor=none;top=0;left=0;bottom=0;right=0;pointerEvents=1;" vertex="1" parent="AxRTOV3y-gQ7B8CPe0Pw-70">
          <mxGeometry x="249" width="81" height="40" as="geometry">
            <mxRectangle width="81" height="40" as="alternateBounds" />
          </mxGeometry>
        </mxCell>
        <mxCell id="AxRTOV3y-gQ7B8CPe0Pw-75" value="" style="shape=table;startSize=0;container=1;collapsible=0;childLayout=tableLayout;" vertex="1" parent="1">
          <mxGeometry x="-300" y="-70" width="250" height="80" as="geometry" />
        </mxCell>
        <mxCell id="AxRTOV3y-gQ7B8CPe0Pw-76" value="" style="shape=tableRow;horizontal=0;startSize=0;swimlaneHead=0;swimlaneBody=0;strokeColor=inherit;top=0;left=0;bottom=0;right=0;collapsible=0;dropTarget=0;fillColor=none;points=[[0,0.5],[1,0.5]];portConstraint=eastwest;" vertex="1" parent="AxRTOV3y-gQ7B8CPe0Pw-75">
          <mxGeometry width="250" height="40" as="geometry" />
        </mxCell>
        <mxCell id="AxRTOV3y-gQ7B8CPe0Pw-77" value="SUBJECT&amp;nbsp;" style="shape=partialRectangle;html=1;whiteSpace=wrap;connectable=0;strokeColor=inherit;overflow=hidden;fillColor=none;top=0;left=0;bottom=0;right=0;pointerEvents=1;rowspan=1;colspan=3;" vertex="1" parent="AxRTOV3y-gQ7B8CPe0Pw-76">
          <mxGeometry width="250" height="40" as="geometry">
            <mxRectangle width="69" height="40" as="alternateBounds" />
          </mxGeometry>
        </mxCell>
        <mxCell id="AxRTOV3y-gQ7B8CPe0Pw-78" value="" style="shape=partialRectangle;html=1;whiteSpace=wrap;connectable=0;strokeColor=inherit;overflow=hidden;fillColor=none;top=0;left=0;bottom=0;right=0;pointerEvents=1;" vertex="1" visible="0" parent="AxRTOV3y-gQ7B8CPe0Pw-76">
          <mxGeometry x="69" width="121" height="40" as="geometry">
            <mxRectangle width="121" height="40" as="alternateBounds" />
          </mxGeometry>
        </mxCell>
        <mxCell id="AxRTOV3y-gQ7B8CPe0Pw-96" style="shape=partialRectangle;html=1;whiteSpace=wrap;connectable=0;strokeColor=inherit;overflow=hidden;fillColor=none;top=0;left=0;bottom=0;right=0;pointerEvents=1;" vertex="1" visible="0" parent="AxRTOV3y-gQ7B8CPe0Pw-76">
          <mxGeometry x="190" width="60" height="40" as="geometry">
            <mxRectangle width="60" height="40" as="alternateBounds" />
          </mxGeometry>
        </mxCell>
        <mxCell id="AxRTOV3y-gQ7B8CPe0Pw-79" value="" style="shape=tableRow;horizontal=0;startSize=0;swimlaneHead=0;swimlaneBody=0;strokeColor=inherit;top=0;left=0;bottom=0;right=0;collapsible=0;dropTarget=0;fillColor=none;points=[[0,0.5],[1,0.5]];portConstraint=eastwest;" vertex="1" parent="AxRTOV3y-gQ7B8CPe0Pw-75">
          <mxGeometry y="40" width="250" height="40" as="geometry" />
        </mxCell>
        <mxCell id="AxRTOV3y-gQ7B8CPe0Pw-80" value="&lt;span style=&quot;text-decoration-line: underline;&quot;&gt;&amp;nbsp;Subject_id&lt;/span&gt;" style="shape=partialRectangle;html=1;whiteSpace=wrap;connectable=0;strokeColor=inherit;overflow=hidden;fillColor=none;top=0;left=0;bottom=0;right=0;pointerEvents=1;" vertex="1" parent="AxRTOV3y-gQ7B8CPe0Pw-79">
          <mxGeometry width="69" height="40" as="geometry">
            <mxRectangle width="69" height="40" as="alternateBounds" />
          </mxGeometry>
        </mxCell>
        <mxCell id="AxRTOV3y-gQ7B8CPe0Pw-81" value="Subject_name" style="shape=partialRectangle;html=1;whiteSpace=wrap;connectable=0;strokeColor=inherit;overflow=hidden;fillColor=none;top=0;left=0;bottom=0;right=0;pointerEvents=1;" vertex="1" parent="AxRTOV3y-gQ7B8CPe0Pw-79">
          <mxGeometry x="69" width="121" height="40" as="geometry">
            <mxRectangle width="121" height="40" as="alternateBounds" />
          </mxGeometry>
        </mxCell>
        <mxCell id="AxRTOV3y-gQ7B8CPe0Pw-97" value="F_id" style="shape=partialRectangle;html=1;whiteSpace=wrap;connectable=0;strokeColor=inherit;overflow=hidden;fillColor=none;top=0;left=0;bottom=0;right=0;pointerEvents=1;" vertex="1" parent="AxRTOV3y-gQ7B8CPe0Pw-79">
          <mxGeometry x="190" width="60" height="40" as="geometry">
            <mxRectangle width="60" height="40" as="alternateBounds" />
          </mxGeometry>
        </mxCell>
        <mxCell id="AxRTOV3y-gQ7B8CPe0Pw-98" value="" style="shape=table;startSize=0;container=1;collapsible=0;childLayout=tableLayout;" vertex="1" parent="1">
          <mxGeometry x="-40" y="210" width="120" height="80" as="geometry" />
        </mxCell>
        <mxCell id="AxRTOV3y-gQ7B8CPe0Pw-99" value="" style="shape=tableRow;horizontal=0;startSize=0;swimlaneHead=0;swimlaneBody=0;strokeColor=inherit;top=0;left=0;bottom=0;right=0;collapsible=0;dropTarget=0;fillColor=none;points=[[0,0.5],[1,0.5]];portConstraint=eastwest;" vertex="1" parent="AxRTOV3y-gQ7B8CPe0Pw-98">
          <mxGeometry width="120" height="40" as="geometry" />
        </mxCell>
        <mxCell id="AxRTOV3y-gQ7B8CPe0Pw-100" value="STUDENT_COURSE&amp;nbsp;" style="shape=partialRectangle;html=1;whiteSpace=wrap;connectable=0;strokeColor=inherit;overflow=hidden;fillColor=none;top=0;left=0;bottom=0;right=0;pointerEvents=1;rowspan=1;colspan=2;" vertex="1" parent="AxRTOV3y-gQ7B8CPe0Pw-99">
          <mxGeometry width="120" height="40" as="geometry">
            <mxRectangle width="60" height="40" as="alternateBounds" />
          </mxGeometry>
        </mxCell>
        <mxCell id="AxRTOV3y-gQ7B8CPe0Pw-101" value="" style="shape=partialRectangle;html=1;whiteSpace=wrap;connectable=0;strokeColor=inherit;overflow=hidden;fillColor=none;top=0;left=0;bottom=0;right=0;pointerEvents=1;" vertex="1" visible="0" parent="AxRTOV3y-gQ7B8CPe0Pw-99">
          <mxGeometry x="60" width="60" height="40" as="geometry">
            <mxRectangle width="60" height="40" as="alternateBounds" />
          </mxGeometry>
        </mxCell>
        <mxCell id="AxRTOV3y-gQ7B8CPe0Pw-102" value="" style="shape=tableRow;horizontal=0;startSize=0;swimlaneHead=0;swimlaneBody=0;strokeColor=inherit;top=0;left=0;bottom=0;right=0;collapsible=0;dropTarget=0;fillColor=none;points=[[0,0.5],[1,0.5]];portConstraint=eastwest;" vertex="1" parent="AxRTOV3y-gQ7B8CPe0Pw-98">
          <mxGeometry y="40" width="120" height="40" as="geometry" />
        </mxCell>
        <mxCell id="AxRTOV3y-gQ7B8CPe0Pw-103" value="&lt;div&gt;S_id&lt;/div&gt;" style="shape=partialRectangle;html=1;whiteSpace=wrap;connectable=0;strokeColor=inherit;overflow=hidden;fillColor=none;top=0;left=0;bottom=0;right=0;pointerEvents=1;" vertex="1" parent="AxRTOV3y-gQ7B8CPe0Pw-102">
          <mxGeometry width="60" height="40" as="geometry">
            <mxRectangle width="60" height="40" as="alternateBounds" />
          </mxGeometry>
        </mxCell>
        <mxCell id="AxRTOV3y-gQ7B8CPe0Pw-104" value="Course_id" style="shape=partialRectangle;html=1;whiteSpace=wrap;connectable=0;strokeColor=inherit;overflow=hidden;fillColor=none;top=0;left=0;bottom=0;right=0;pointerEvents=1;" vertex="1" parent="AxRTOV3y-gQ7B8CPe0Pw-102">
          <mxGeometry x="60" width="60" height="40" as="geometry">
            <mxRectangle width="60" height="40" as="alternateBounds" />
          </mxGeometry>
        </mxCell>
        <mxCell id="AxRTOV3y-gQ7B8CPe0Pw-105" value="" style="shape=table;startSize=0;container=1;collapsible=0;childLayout=tableLayout;" vertex="1" parent="1">
          <mxGeometry x="558" y="220" width="142" height="80" as="geometry" />
        </mxCell>
        <mxCell id="AxRTOV3y-gQ7B8CPe0Pw-106" value="" style="shape=tableRow;horizontal=0;startSize=0;swimlaneHead=0;swimlaneBody=0;strokeColor=inherit;top=0;left=0;bottom=0;right=0;collapsible=0;dropTarget=0;fillColor=none;points=[[0,0.5],[1,0.5]];portConstraint=eastwest;" vertex="1" parent="AxRTOV3y-gQ7B8CPe0Pw-105">
          <mxGeometry width="142" height="40" as="geometry" />
        </mxCell>
        <mxCell id="AxRTOV3y-gQ7B8CPe0Pw-107" value="COURSE _DEPARTMENT" style="shape=partialRectangle;html=1;whiteSpace=wrap;connectable=0;strokeColor=inherit;overflow=hidden;fillColor=none;top=0;left=0;bottom=0;right=0;pointerEvents=1;rowspan=1;colspan=2;" vertex="1" parent="AxRTOV3y-gQ7B8CPe0Pw-106">
          <mxGeometry width="142" height="40" as="geometry">
            <mxRectangle width="60" height="40" as="alternateBounds" />
          </mxGeometry>
        </mxCell>
        <mxCell id="AxRTOV3y-gQ7B8CPe0Pw-108" value="" style="shape=partialRectangle;html=1;whiteSpace=wrap;connectable=0;strokeColor=inherit;overflow=hidden;fillColor=none;top=0;left=0;bottom=0;right=0;pointerEvents=1;" vertex="1" visible="0" parent="AxRTOV3y-gQ7B8CPe0Pw-106">
          <mxGeometry x="60" width="82" height="40" as="geometry">
            <mxRectangle width="82" height="40" as="alternateBounds" />
          </mxGeometry>
        </mxCell>
        <mxCell id="AxRTOV3y-gQ7B8CPe0Pw-109" value="" style="shape=tableRow;horizontal=0;startSize=0;swimlaneHead=0;swimlaneBody=0;strokeColor=inherit;top=0;left=0;bottom=0;right=0;collapsible=0;dropTarget=0;fillColor=none;points=[[0,0.5],[1,0.5]];portConstraint=eastwest;" vertex="1" parent="AxRTOV3y-gQ7B8CPe0Pw-105">
          <mxGeometry y="40" width="142" height="40" as="geometry" />
        </mxCell>
        <mxCell id="AxRTOV3y-gQ7B8CPe0Pw-110" value="Course_id" style="shape=partialRectangle;html=1;whiteSpace=wrap;connectable=0;strokeColor=inherit;overflow=hidden;fillColor=none;top=0;left=0;bottom=0;right=0;pointerEvents=1;" vertex="1" parent="AxRTOV3y-gQ7B8CPe0Pw-109">
          <mxGeometry width="60" height="40" as="geometry">
            <mxRectangle width="60" height="40" as="alternateBounds" />
          </mxGeometry>
        </mxCell>
        <mxCell id="AxRTOV3y-gQ7B8CPe0Pw-111" value="Department_id" style="shape=partialRectangle;html=1;whiteSpace=wrap;connectable=0;strokeColor=inherit;overflow=hidden;fillColor=none;top=0;left=0;bottom=0;right=0;pointerEvents=1;" vertex="1" parent="AxRTOV3y-gQ7B8CPe0Pw-109">
          <mxGeometry x="60" width="82" height="40" as="geometry">
            <mxRectangle width="82" height="40" as="alternateBounds" />
          </mxGeometry>
        </mxCell>
        <mxCell id="AxRTOV3y-gQ7B8CPe0Pw-112" value="" style="shape=table;startSize=0;container=1;collapsible=0;childLayout=tableLayout;" vertex="1" parent="1">
          <mxGeometry x="50" y="-80" width="120" height="80" as="geometry" />
        </mxCell>
        <mxCell id="AxRTOV3y-gQ7B8CPe0Pw-113" value="" style="shape=tableRow;horizontal=0;startSize=0;swimlaneHead=0;swimlaneBody=0;strokeColor=inherit;top=0;left=0;bottom=0;right=0;collapsible=0;dropTarget=0;fillColor=none;points=[[0,0.5],[1,0.5]];portConstraint=eastwest;" vertex="1" parent="AxRTOV3y-gQ7B8CPe0Pw-112">
          <mxGeometry width="120" height="40" as="geometry" />
        </mxCell>
        <mxCell id="AxRTOV3y-gQ7B8CPe0Pw-114" value="STUDENT_&amp;nbsp;EXAMS&amp;nbsp;" style="shape=partialRectangle;html=1;whiteSpace=wrap;connectable=0;strokeColor=inherit;overflow=hidden;fillColor=none;top=0;left=0;bottom=0;right=0;pointerEvents=1;rowspan=1;colspan=2;" vertex="1" parent="AxRTOV3y-gQ7B8CPe0Pw-113">
          <mxGeometry width="120" height="40" as="geometry">
            <mxRectangle width="51" height="40" as="alternateBounds" />
          </mxGeometry>
        </mxCell>
        <mxCell id="AxRTOV3y-gQ7B8CPe0Pw-115" value="" style="shape=partialRectangle;html=1;whiteSpace=wrap;connectable=0;strokeColor=inherit;overflow=hidden;fillColor=none;top=0;left=0;bottom=0;right=0;pointerEvents=1;" vertex="1" visible="0" parent="AxRTOV3y-gQ7B8CPe0Pw-113">
          <mxGeometry x="51" width="69" height="40" as="geometry">
            <mxRectangle width="69" height="40" as="alternateBounds" />
          </mxGeometry>
        </mxCell>
        <mxCell id="AxRTOV3y-gQ7B8CPe0Pw-116" value="" style="shape=tableRow;horizontal=0;startSize=0;swimlaneHead=0;swimlaneBody=0;strokeColor=inherit;top=0;left=0;bottom=0;right=0;collapsible=0;dropTarget=0;fillColor=none;points=[[0,0.5],[1,0.5]];portConstraint=eastwest;" vertex="1" parent="AxRTOV3y-gQ7B8CPe0Pw-112">
          <mxGeometry y="40" width="120" height="40" as="geometry" />
        </mxCell>
        <mxCell id="AxRTOV3y-gQ7B8CPe0Pw-117" value="S_id" style="shape=partialRectangle;html=1;whiteSpace=wrap;connectable=0;strokeColor=inherit;overflow=hidden;fillColor=none;top=0;left=0;bottom=0;right=0;pointerEvents=1;" vertex="1" parent="AxRTOV3y-gQ7B8CPe0Pw-116">
          <mxGeometry width="51" height="40" as="geometry">
            <mxRectangle width="51" height="40" as="alternateBounds" />
          </mxGeometry>
        </mxCell>
        <mxCell id="AxRTOV3y-gQ7B8CPe0Pw-118" value="Exam_code" style="shape=partialRectangle;html=1;whiteSpace=wrap;connectable=0;strokeColor=inherit;overflow=hidden;fillColor=none;top=0;left=0;bottom=0;right=0;pointerEvents=1;" vertex="1" parent="AxRTOV3y-gQ7B8CPe0Pw-116">
          <mxGeometry x="51" width="69" height="40" as="geometry">
            <mxRectangle width="69" height="40" as="alternateBounds" />
          </mxGeometry>
        </mxCell>
        <mxCell id="AxRTOV3y-gQ7B8CPe0Pw-119" value="" style="shape=table;startSize=0;container=1;collapsible=0;childLayout=tableLayout;" vertex="1" parent="1">
          <mxGeometry x="-280" y="30" width="130" height="80" as="geometry" />
        </mxCell>
        <mxCell id="AxRTOV3y-gQ7B8CPe0Pw-120" value="" style="shape=tableRow;horizontal=0;startSize=0;swimlaneHead=0;swimlaneBody=0;strokeColor=inherit;top=0;left=0;bottom=0;right=0;collapsible=0;dropTarget=0;fillColor=none;points=[[0,0.5],[1,0.5]];portConstraint=eastwest;" vertex="1" parent="AxRTOV3y-gQ7B8CPe0Pw-119">
          <mxGeometry width="130" height="40" as="geometry" />
        </mxCell>
        <mxCell id="AxRTOV3y-gQ7B8CPe0Pw-121" value="STUDENT_SUBJECT&amp;nbsp;" style="shape=partialRectangle;html=1;whiteSpace=wrap;connectable=0;strokeColor=inherit;overflow=hidden;fillColor=none;top=0;left=0;bottom=0;right=0;pointerEvents=1;rowspan=1;colspan=2;" vertex="1" parent="AxRTOV3y-gQ7B8CPe0Pw-120">
          <mxGeometry width="130" height="40" as="geometry">
            <mxRectangle width="60" height="40" as="alternateBounds" />
          </mxGeometry>
        </mxCell>
        <mxCell id="AxRTOV3y-gQ7B8CPe0Pw-122" value="" style="shape=partialRectangle;html=1;whiteSpace=wrap;connectable=0;strokeColor=inherit;overflow=hidden;fillColor=none;top=0;left=0;bottom=0;right=0;pointerEvents=1;" vertex="1" visible="0" parent="AxRTOV3y-gQ7B8CPe0Pw-120">
          <mxGeometry x="60" width="70" height="40" as="geometry">
            <mxRectangle width="70" height="40" as="alternateBounds" />
          </mxGeometry>
        </mxCell>
        <mxCell id="AxRTOV3y-gQ7B8CPe0Pw-123" value="" style="shape=tableRow;horizontal=0;startSize=0;swimlaneHead=0;swimlaneBody=0;strokeColor=inherit;top=0;left=0;bottom=0;right=0;collapsible=0;dropTarget=0;fillColor=none;points=[[0,0.5],[1,0.5]];portConstraint=eastwest;" vertex="1" parent="AxRTOV3y-gQ7B8CPe0Pw-119">
          <mxGeometry y="40" width="130" height="40" as="geometry" />
        </mxCell>
        <mxCell id="AxRTOV3y-gQ7B8CPe0Pw-124" value="S_id" style="shape=partialRectangle;html=1;whiteSpace=wrap;connectable=0;strokeColor=inherit;overflow=hidden;fillColor=none;top=0;left=0;bottom=0;right=0;pointerEvents=1;" vertex="1" parent="AxRTOV3y-gQ7B8CPe0Pw-123">
          <mxGeometry width="60" height="40" as="geometry">
            <mxRectangle width="60" height="40" as="alternateBounds" />
          </mxGeometry>
        </mxCell>
        <mxCell id="AxRTOV3y-gQ7B8CPe0Pw-125" value="&lt;span style=&quot;text-decoration-line: underline;&quot;&gt;&amp;nbsp;&lt;/span&gt;Subject_id" style="shape=partialRectangle;html=1;whiteSpace=wrap;connectable=0;strokeColor=inherit;overflow=hidden;fillColor=none;top=0;left=0;bottom=0;right=0;pointerEvents=1;" vertex="1" parent="AxRTOV3y-gQ7B8CPe0Pw-123">
          <mxGeometry x="60" width="70" height="40" as="geometry">
            <mxRectangle width="70" height="40" as="alternateBounds" />
          </mxGeometry>
        </mxCell>
        <mxCell id="AxRTOV3y-gQ7B8CPe0Pw-127" style="edgeStyle=orthogonalEdgeStyle;rounded=0;orthogonalLoop=1;jettySize=auto;html=1;exitX=1;exitY=0.5;exitDx=0;exitDy=0;entryX=0;entryY=0.5;entryDx=0;entryDy=0;fillColor=#dae8fc;strokeColor=#6c8ebf;" edge="1" parent="1" source="AxRTOV3y-gQ7B8CPe0Pw-21" target="AxRTOV3y-gQ7B8CPe0Pw-8">
          <mxGeometry relative="1" as="geometry" />
        </mxCell>
        <mxCell id="AxRTOV3y-gQ7B8CPe0Pw-128" style="edgeStyle=orthogonalEdgeStyle;rounded=0;orthogonalLoop=1;jettySize=auto;html=1;entryX=0.717;entryY=1.025;entryDx=0;entryDy=0;entryPerimeter=0;startArrow=classic;startFill=0;endArrow=none;fillColor=#d5e8d4;strokeColor=#82b366;" edge="1" parent="1" source="AxRTOV3y-gQ7B8CPe0Pw-61" target="AxRTOV3y-gQ7B8CPe0Pw-21">
          <mxGeometry relative="1" as="geometry" />
        </mxCell>
        <mxCell id="AxRTOV3y-gQ7B8CPe0Pw-129" style="edgeStyle=orthogonalEdgeStyle;rounded=0;orthogonalLoop=1;jettySize=auto;html=1;entryX=0.617;entryY=0.975;entryDx=0;entryDy=0;entryPerimeter=0;exitX=0;exitY=0.5;exitDx=0;exitDy=0;startArrow=classic;startFill=0;endArrow=none;fillColor=#ffe6cc;strokeColor=#d79b00;" edge="1" parent="1" source="AxRTOV3y-gQ7B8CPe0Pw-36" target="AxRTOV3y-gQ7B8CPe0Pw-21">
          <mxGeometry relative="1" as="geometry">
            <Array as="points">
              <mxPoint x="-260" y="410" />
              <mxPoint x="-260" y="320" />
              <mxPoint x="238" y="320" />
            </Array>
          </mxGeometry>
        </mxCell>
        <mxCell id="AxRTOV3y-gQ7B8CPe0Pw-133" style="edgeStyle=orthogonalEdgeStyle;rounded=0;orthogonalLoop=1;jettySize=auto;html=1;exitX=0;exitY=0.5;exitDx=0;exitDy=0;entryX=0;entryY=0.5;entryDx=0;entryDy=0;fillColor=#fff2cc;strokeColor=#d6b656;" edge="1" parent="1" source="AxRTOV3y-gQ7B8CPe0Pw-102" target="AxRTOV3y-gQ7B8CPe0Pw-21">
          <mxGeometry relative="1" as="geometry">
            <Array as="points">
              <mxPoint x="-160" y="270" />
              <mxPoint x="-160" y="180" />
            </Array>
          </mxGeometry>
        </mxCell>
        <mxCell id="AxRTOV3y-gQ7B8CPe0Pw-135" style="edgeStyle=orthogonalEdgeStyle;rounded=0;orthogonalLoop=1;jettySize=auto;html=1;entryX=0.708;entryY=1;entryDx=0;entryDy=0;entryPerimeter=0;fillColor=#e1d5e7;strokeColor=#9673a6;startArrow=classic;startFill=0;endArrow=none;" edge="1" parent="1" source="AxRTOV3y-gQ7B8CPe0Pw-79" target="AxRTOV3y-gQ7B8CPe0Pw-123">
          <mxGeometry relative="1" as="geometry">
            <Array as="points">
              <mxPoint x="-320" y="-10" />
              <mxPoint x="-320" y="130" />
              <mxPoint x="-188" y="130" />
            </Array>
          </mxGeometry>
        </mxCell>
        <mxCell id="AxRTOV3y-gQ7B8CPe0Pw-137" style="edgeStyle=orthogonalEdgeStyle;rounded=0;orthogonalLoop=1;jettySize=auto;html=1;entryX=0;entryY=0.25;entryDx=0;entryDy=0;entryPerimeter=0;fillColor=#60a917;strokeColor=#2D7600;" edge="1" parent="1" source="AxRTOV3y-gQ7B8CPe0Pw-123" target="AxRTOV3y-gQ7B8CPe0Pw-21">
          <mxGeometry relative="1" as="geometry">
            <Array as="points">
              <mxPoint x="-300" y="90" />
              <mxPoint x="-300" y="150" />
              <mxPoint x="-140" y="150" />
              <mxPoint x="-140" y="170" />
            </Array>
          </mxGeometry>
        </mxCell>
        <mxCell id="AxRTOV3y-gQ7B8CPe0Pw-139" style="edgeStyle=orthogonalEdgeStyle;rounded=0;orthogonalLoop=1;jettySize=auto;html=1;entryX=-0.01;entryY=0.875;entryDx=0;entryDy=0;entryPerimeter=0;exitX=0.884;exitY=0.925;exitDx=0;exitDy=0;exitPerimeter=0;fillColor=#1ba1e2;strokeColor=#006EAF;" edge="1" parent="1" source="AxRTOV3y-gQ7B8CPe0Pw-79" target="AxRTOV3y-gQ7B8CPe0Pw-8">
          <mxGeometry relative="1" as="geometry">
            <Array as="points">
              <mxPoint x="-79" y="9" />
              <mxPoint x="-80" y="9" />
              <mxPoint x="-80" y="25" />
            </Array>
          </mxGeometry>
        </mxCell>
        <mxCell id="AxRTOV3y-gQ7B8CPe0Pw-140" style="edgeStyle=orthogonalEdgeStyle;rounded=0;orthogonalLoop=1;jettySize=auto;html=1;entryX=0.115;entryY=1;entryDx=0;entryDy=0;entryPerimeter=0;fillColor=#6a00ff;strokeColor=#3700CC;" edge="1" parent="1" source="AxRTOV3y-gQ7B8CPe0Pw-116" target="AxRTOV3y-gQ7B8CPe0Pw-70">
          <mxGeometry relative="1" as="geometry">
            <Array as="points">
              <mxPoint x="190" y="-20" />
              <mxPoint x="190" y="-90" />
              <mxPoint x="68" y="-90" />
            </Array>
          </mxGeometry>
        </mxCell>
        <mxCell id="AxRTOV3y-gQ7B8CPe0Pw-141" style="edgeStyle=orthogonalEdgeStyle;rounded=0;orthogonalLoop=1;jettySize=auto;html=1;entryX=0.045;entryY=1.025;entryDx=0;entryDy=0;entryPerimeter=0;fillColor=#d80073;strokeColor=#A50040;" edge="1" parent="1" source="AxRTOV3y-gQ7B8CPe0Pw-116" target="AxRTOV3y-gQ7B8CPe0Pw-21">
          <mxGeometry relative="1" as="geometry">
            <Array as="points">
              <mxPoint x="20" y="-20" />
              <mxPoint x="20" y="80" />
              <mxPoint x="-140" y="80" />
              <mxPoint x="-140" y="220" />
              <mxPoint x="-94" y="220" />
            </Array>
          </mxGeometry>
        </mxCell>
        <mxCell id="AxRTOV3y-gQ7B8CPe0Pw-143" style="edgeStyle=orthogonalEdgeStyle;rounded=0;orthogonalLoop=1;jettySize=auto;html=1;entryX=0;entryY=0.5;entryDx=0;entryDy=0;exitX=0.225;exitY=1;exitDx=0;exitDy=0;exitPerimeter=0;fillColor=#a20025;strokeColor=#6F0000;" edge="1" parent="1" source="AxRTOV3y-gQ7B8CPe0Pw-109" target="AxRTOV3y-gQ7B8CPe0Pw-49">
          <mxGeometry relative="1" as="geometry">
            <Array as="points">
              <mxPoint x="590" y="320" />
              <mxPoint x="720" y="320" />
              <mxPoint x="720" y="340" />
              <mxPoint x="510" y="340" />
              <mxPoint x="510" y="410" />
            </Array>
          </mxGeometry>
        </mxCell>
        <mxCell id="AxRTOV3y-gQ7B8CPe0Pw-144" style="edgeStyle=orthogonalEdgeStyle;rounded=0;orthogonalLoop=1;jettySize=auto;html=1;entryX=0;entryY=0.275;entryDx=0;entryDy=0;entryPerimeter=0;exitX=1;exitY=0.5;exitDx=0;exitDy=0;fillColor=#fa6800;strokeColor=#C73500;" edge="1" parent="1" source="AxRTOV3y-gQ7B8CPe0Pw-109" target="AxRTOV3y-gQ7B8CPe0Pw-61">
          <mxGeometry relative="1" as="geometry">
            <Array as="points">
              <mxPoint x="720" y="280" />
              <mxPoint x="720" y="210" />
              <mxPoint x="310" y="210" />
              <mxPoint x="310" y="351" />
            </Array>
          </mxGeometry>
        </mxCell>
        <mxCell id="AxRTOV3y-gQ7B8CPe0Pw-145" style="edgeStyle=orthogonalEdgeStyle;rounded=0;orthogonalLoop=1;jettySize=auto;html=1;entryX=-0.01;entryY=0.9;entryDx=0;entryDy=0;entryPerimeter=0;fillColor=#a0522d;strokeColor=#6D1F00;" edge="1" parent="1" source="AxRTOV3y-gQ7B8CPe0Pw-102" target="AxRTOV3y-gQ7B8CPe0Pw-49">
          <mxGeometry relative="1" as="geometry">
            <Array as="points">
              <mxPoint x="260" y="270" />
              <mxPoint x="260" y="426" />
            </Array>
          </mxGeometry>
        </mxCell>
        <mxCell id="AxRTOV3y-gQ7B8CPe0Pw-146" style="edgeStyle=orthogonalEdgeStyle;rounded=0;orthogonalLoop=1;jettySize=auto;html=1;entryX=0.147;entryY=1.025;entryDx=0;entryDy=0;entryPerimeter=0;fillColor=#ffcd28;gradientColor=#ffa500;strokeColor=#d79b00;" edge="1" parent="1" source="AxRTOV3y-gQ7B8CPe0Pw-70" target="AxRTOV3y-gQ7B8CPe0Pw-61">
          <mxGeometry relative="1" as="geometry">
            <Array as="points">
              <mxPoint x="760" y="-140" />
              <mxPoint x="760" y="470" />
              <mxPoint x="310" y="470" />
              <mxPoint x="310" y="400" />
              <mxPoint x="352" y="400" />
            </Array>
          </mxGeometry>
        </mxCell>
        <mxCell id="AxRTOV3y-gQ7B8CPe0Pw-147" style="edgeStyle=orthogonalEdgeStyle;rounded=0;orthogonalLoop=1;jettySize=auto;html=1;entryX=0.333;entryY=1.05;entryDx=0;entryDy=0;entryPerimeter=0;fillColor=#e1d5e7;strokeColor=#9673a6;" edge="1" parent="1" source="AxRTOV3y-gQ7B8CPe0Pw-8" target="AxRTOV3y-gQ7B8CPe0Pw-61">
          <mxGeometry relative="1" as="geometry">
            <Array as="points">
              <mxPoint x="660" y="185" />
              <mxPoint x="500" y="185" />
              <mxPoint x="500" y="410" />
              <mxPoint x="380" y="410" />
            </Array>
          </mxGeometry>
        </mxCell>
      </root>
    </mxGraphModel>
  </diagram>
</mxfile>
